<?xml version="1.0" standalone="no"?><!DOCTYPE svg PUBLIC "-//W3C//DTD SVG 1.1//EN" "http://www.w3.org/Graphics/SVG/1.1/DTD/svg11.dtd"><svg t="1700278278738" class="icon" viewBox="0 0 1024 1024" version="1.1" xmlns="http://www.w3.org/2000/svg" p-id="11942" xmlns:xlink="http://www.w3.org/1999/xlink" width="200" height="200"><path d="M874.667 106.667H149.333a42.667 42.667 0 0 0-42.666 42.666v725.334a42.667 42.667 0 0 0 42.666 42.666h725.334a42.667 42.667 0 0 0 42.666-42.666V149.333a42.667 42.667 0 0 0-42.666-42.666z m-704 746.666v-480H480v480z m682.666 0H544v-480h309.333z m-682.666-544V170.667h682.666v138.666z" p-id="11943" fill="#144e2e"></path><path d="M320 480a32 32 0 0 0-32 32v149.333a32 32 0 0 0 64 0V512a32 32 0 0 0-32-32z m384 213.333a32 32 0 0 0 32-32V512a32 32 0 0 0-64 0v149.333a32 32 0 0 0 32 32z" p-id="11944" fill="#144e2e"></path></svg>