<svg xmlns="http://www.w3.org/2000/svg" id="canvas" viewBox="208.406 286.972 937.162 218.458"><path d="M 257.75,290.31 C 256.43 290.93, 255.59 291.72, 254.71 294.12 C 253.83 296.52, 254.08 298.18, 253.34 302.32 C 252.59 306.46, 252.23 309.18, 250.99 314.80 C 249.74 320.42, 248.94 323.73, 247.10 330.42 C 245.27 337.10, 244.09 340.82, 241.81 348.23 C 239.54 355.64, 238.19 359.72, 235.72 367.47 C 233.25 375.22, 231.89 379.38, 229.47 386.98 C 227.05 394.58, 225.81 398.51, 223.64 405.49 C 221.46 412.46, 220.41 415.94, 218.60 421.86 C 216.80 427.78, 216.00 430.55, 214.60 435.10 C 213.21 439.64, 212.13 441.55, 211.63 444.57 C 211.12 447.60, 211.57 448.64, 212.08 450.24 C 212.58 451.84, 213.40 452.14, 214.15 452.57 C 214.90 453.00, 215.56 452.64, 215.81 452.40 C 216.06 452.16, 215.37 451.51, 215.40 451.36 C 215.42 451.20, 215.54 451.85, 215.94 451.63 C 216.35 451.41, 216.90 451.45, 217.42 450.27 C 217.94 449.08, 218.11 448.48, 218.54 445.69 C 218.97 442.90, 218.77 440.85, 219.58 436.31 C 220.39 431.76, 221.08 428.93, 222.59 422.97 C 224.10 417.02, 225.10 413.53, 227.14 406.54 C 229.18 399.55, 230.40 395.63, 232.78 388.03 C 235.16 380.43, 236.53 376.28, 239.06 368.55 C 241.58 360.82, 242.96 356.75, 245.41 349.38 C 247.85 342.00, 249.10 338.30, 251.28 331.68 C 253.46 325.06, 254.49 321.79, 256.30 316.26 C 258.12 310.73, 259.08 308.12, 260.34 304.04 C 261.61 299.95, 262.45 298.44, 262.65 295.83 C 262.85 293.23, 262.31 292.13, 261.33 291.02 C 260.35 289.92, 259.08 289.69, 257.75 290.31" style="stroke: black; fill: black;"/><path d="M 300.02,375.77 C 300.03 374.48, 299.64 373.70, 298.22 372.93 C 296.79 372.15, 295.37 371.50, 292.90 371.87 C 290.44 372.25, 288.51 372.58, 285.88 374.80 C 283.26 377.03, 282.42 379.23, 279.77 383.01 C 277.12 386.78, 275.42 389.15, 272.64 393.69 C 269.87 398.24, 268.18 401.01, 265.89 405.74 C 263.60 410.47, 262.34 413.04, 261.20 417.35 C 260.05 421.66, 259.39 423.94, 260.16 427.30 C 260.93 430.66, 262.38 432.36, 265.07 434.15 C 267.75 435.94, 269.98 436.64, 273.59 436.25 C 277.19 435.87, 279.27 434.55, 283.08 432.23 C 286.89 429.92, 288.95 428.17, 292.64 424.69 C 296.33 421.20, 298.34 418.96, 301.54 414.80 C 304.74 410.63, 306.33 408.18, 308.65 403.87 C 310.98 399.55, 312.03 397.25, 313.15 393.22 C 314.26 389.19, 314.70 387.02, 314.24 383.70 C 313.79 380.39, 312.57 378.78, 310.86 376.63 C 309.16 374.49, 307.71 373.40, 305.72 372.97 C 303.73 372.55, 301.96 373.14, 300.91 374.50 C 299.85 375.86, 299.50 377.96, 300.45 379.76 C 301.40 381.56, 302.68 383.08, 305.66 383.49 C 308.64 383.91, 310.73 382.80, 315.35 381.83 C 319.96 380.86, 322.75 380.18, 328.72 378.64 C 334.70 377.11, 338.19 376.18, 345.21 374.16 C 352.24 372.15, 356.28 370.92, 363.84 368.59 C 371.41 366.25, 375.50 364.88, 383.04 362.50 C 390.58 360.12, 394.52 358.84, 401.56 356.66 C 408.60 354.49, 412.17 353.36, 418.26 351.62 C 424.35 349.87, 427.22 349.13, 432.01 347.94 C 436.81 346.75, 438.86 346.52, 442.23 345.67 C 445.59 344.82, 447.60 344.70, 448.84 343.68 C 450.09 342.67, 449.98 341.24, 448.44 340.59 C 446.91 339.93, 444.71 339.85, 441.17 340.39 C 437.62 340.93, 435.54 341.81, 430.72 343.28 C 425.90 344.75, 423.12 345.76, 417.07 347.73 C 411.01 349.71, 407.47 350.89, 400.45 353.17 C 393.43 355.44, 389.51 356.73, 381.97 359.10 C 374.43 361.47, 370.34 362.82, 362.78 365.02 C 355.21 367.21, 351.16 368.39, 344.14 370.09 C 337.12 371.78, 333.59 372.61, 327.68 373.49 C 321.77 374.36, 318.87 374.53, 314.59 374.47 C 310.32 374.41, 308.67 373.11, 306.30 373.19 C 303.93 373.27, 303.59 373.92, 302.75 374.87 C 301.90 375.82, 302.04 376.96, 302.07 377.95 C 302.11 378.94, 302.32 379.18, 302.91 379.81 C 303.51 380.45, 304.32 380.12, 305.04 381.12 C 305.77 382.12, 306.20 382.71, 306.53 384.82 C 306.86 386.93, 307.33 388.41, 306.70 391.67 C 306.06 394.92, 305.31 397.21, 303.36 401.10 C 301.40 405.00, 299.90 407.40, 296.90 411.16 C 293.90 414.93, 291.86 416.98, 288.38 419.91 C 284.89 422.84, 282.68 424.15, 279.45 425.82 C 276.22 427.48, 274.47 427.64, 272.24 428.24 C 270.00 428.85, 269.29 429.26, 268.26 428.82 C 267.23 428.39, 267.25 428.05, 267.08 426.07 C 266.90 424.09, 266.56 422.46, 267.40 418.92 C 268.24 415.37, 269.17 412.70, 271.28 408.35 C 273.39 403.99, 275.07 401.25, 277.94 397.15 C 280.81 393.05, 282.73 390.73, 285.61 387.84 C 288.48 384.96, 290.40 384.19, 292.31 382.74 C 294.23 381.28, 294.42 381.03, 295.20 380.55 C 295.98 380.06, 295.62 380.55, 296.22 380.31 C 296.82 380.08, 297.42 380.30, 298.18 379.39 C 298.94 378.48, 300.02 377.06, 300.02 375.77" style="stroke: black; fill: black;"/><path d="M 400.68,364.10 C 399.05 364.18, 397.50 364.67, 395.47 366.89 C 393.44 369.10, 392.55 371.21, 390.51 375.18 C 388.48 379.14, 387.28 381.84, 385.28 386.71 C 383.29 391.57, 382.35 394.39, 380.54 399.50 C 378.74 404.62, 377.80 407.36, 376.24 412.28 C 374.68 417.20, 373.83 419.70, 372.76 424.11 C 371.68 428.51, 370.92 430.67, 370.87 434.33 C 370.81 437.99, 371.28 439.87, 372.48 442.40 C 373.68 444.92, 375.15 445.94, 376.85 446.95 C 378.55 447.95, 379.89 447.88, 380.98 447.44 C 382.08 446.99, 382.36 445.72, 382.33 444.72 C 382.30 443.72, 381.46 443.47, 380.84 442.43 C 380.23 441.39, 379.82 441.15, 379.26 439.52 C 378.69 437.88, 378.12 437.10, 378.00 434.26 C 377.88 431.42, 377.95 429.41, 378.65 425.33 C 379.34 421.26, 380.06 418.67, 381.47 413.89 C 382.88 409.10, 383.82 406.34, 385.71 401.41 C 387.61 396.48, 388.72 393.78, 390.95 389.26 C 393.18 384.74, 394.61 382.33, 396.87 378.83 C 399.12 375.33, 400.87 374.22, 402.22 371.76 C 403.57 369.29, 403.90 368.02, 403.60 366.49 C 403.29 364.96, 402.30 364.02, 400.68 364.10" style="stroke: black; fill: black;"/><path d="M 503.04,365.29 C 501.80 365.55, 501.19 365.86, 500.10 367.51 C 499.01 369.15, 498.62 370.24, 497.58 373.52 C 496.54 376.80, 496.37 379.24, 494.90 383.90 C 493.44 388.56, 492.35 391.52, 490.25 396.81 C 488.16 402.11, 486.78 405.17, 484.42 410.37 C 482.06 415.58, 480.69 418.43, 478.46 422.84 C 476.22 427.24, 474.52 429.21, 473.25 432.41 C 471.98 435.62, 471.63 437.14, 472.12 438.86 C 472.60 440.59, 474.03 441.41, 475.68 441.03 C 477.34 440.65, 478.68 439.91, 480.38 436.98 C 482.07 434.04, 482.19 431.35, 484.16 426.34 C 486.12 421.33, 487.35 418.05, 490.22 411.93 C 493.09 405.80, 494.88 402.22, 498.50 395.72 C 502.12 389.22, 504.28 385.65, 508.33 379.43 C 512.38 373.20, 514.67 370.00, 518.75 364.58 C 522.84 359.16, 524.96 356.51, 528.76 352.33 C 532.55 348.15, 534.55 346.25, 537.73 343.69 C 540.92 341.13, 542.69 340.65, 544.69 339.52 C 546.68 338.40, 546.97 337.92, 547.71 338.07 C 548.44 338.21, 548.17 338.73, 548.38 340.24 C 548.60 341.76, 548.54 342.90, 548.79 345.66 C 549.05 348.43, 549.51 350.35, 549.66 354.05 C 549.81 357.76, 549.73 360.10, 549.52 364.18 C 549.32 368.27, 548.99 370.54, 548.62 374.48 C 548.26 378.41, 547.66 380.43, 547.70 383.86 C 547.74 387.29, 547.70 389.05, 548.83 391.63 C 549.96 394.22, 551.03 395.50, 553.35 396.79 C 555.67 398.08, 557.49 398.74, 560.43 398.09 C 563.38 397.44, 564.81 396.13, 568.06 393.54 C 571.32 390.96, 572.93 388.94, 576.71 385.16 C 580.49 381.38, 582.68 378.97, 586.97 374.63 C 591.26 370.29, 593.74 367.74, 598.15 363.46 C 602.55 359.18, 604.93 356.83, 609.00 353.21 C 613.07 349.60, 615.16 347.87, 618.49 345.40 C 621.82 342.94, 623.78 342.43, 625.64 340.89 C 627.50 339.35, 627.75 338.23, 627.77 337.69 C 627.80 337.16, 626.71 336.80, 625.77 338.21 C 624.83 339.62, 624.55 341.08, 623.08 344.76 C 621.62 348.44, 620.82 351.23, 618.47 356.60 C 616.12 361.98, 614.41 365.37, 611.34 371.62 C 608.26 377.88, 606.27 381.45, 603.11 387.87 C 599.95 394.29, 598.19 397.75, 595.54 403.72 C 592.90 409.69, 591.59 412.67, 589.87 417.73 C 588.15 422.80, 587.24 425.03, 586.94 429.04 C 586.63 433.04, 586.82 434.99, 588.36 437.77 C 589.91 440.55, 591.60 441.94, 594.68 442.94 C 597.75 443.94, 599.87 443.73, 603.74 442.77 C 607.61 441.82, 609.61 440.54, 614.01 438.17 C 618.41 435.80, 620.83 434.15, 625.75 430.91 C 630.68 427.66, 633.45 425.63, 638.65 421.95 C 643.84 418.27, 646.68 416.11, 651.73 412.49 C 656.78 408.88, 659.41 406.95, 663.89 403.86 C 668.38 400.77, 670.57 399.26, 674.17 397.03 C 677.77 394.80, 679.72 394.38, 681.90 392.72 C 684.08 391.05, 684.58 390.18, 685.09 388.72 C 685.59 387.27, 685.29 386.47, 684.41 385.42 C 683.54 384.37, 682.46 383.66, 680.71 383.47 C 678.95 383.28, 677.84 383.23, 675.66 384.47 C 673.47 385.72, 672.43 387.15, 669.77 389.67 C 667.12 392.19, 665.46 393.84, 662.36 397.07 C 659.26 400.30, 657.49 402.19, 654.27 405.80 C 651.05 409.42, 649.18 411.47, 646.26 415.13 C 643.34 418.79, 641.77 420.72, 639.67 424.10 C 637.57 427.48, 636.38 429.08, 635.75 432.03 C 635.13 434.99, 635.42 436.62, 636.53 438.87 C 637.64 441.13, 638.86 442.33, 641.31 443.31 C 643.77 444.29, 645.75 444.67, 648.80 443.76 C 651.86 442.85, 653.30 441.28, 656.59 438.75 C 659.88 436.23, 661.67 434.50, 665.27 431.15 C 668.87 427.80, 670.88 425.76, 674.58 422.00 C 678.29 418.24, 680.32 416.03, 683.78 412.36 C 687.24 408.69, 689.61 406.73, 691.89 403.67 C 694.16 400.61, 695.12 398.98, 695.16 397.07 C 695.19 395.15, 693.91 394.13, 692.07 394.10 C 690.22 394.06, 688.12 394.64, 685.94 396.89 C 683.77 399.14, 682.89 401.70, 681.19 405.35 C 679.49 409.00, 678.52 411.41, 677.45 415.13 C 676.38 418.86, 675.54 420.80, 675.84 423.98 C 676.14 427.15, 676.97 428.86, 678.95 431.00 C 680.92 433.14, 682.57 434.31, 685.70 434.68 C 688.83 435.04, 690.80 434.33, 694.60 432.83 C 698.41 431.33, 700.42 429.86, 704.72 427.17 C 709.01 424.47, 711.44 422.66, 716.09 419.35 C 720.74 416.05, 723.39 413.95, 727.96 410.65 C 732.54 407.36, 735.07 405.42, 738.97 402.88 C 742.87 400.34, 745.33 399.60, 747.46 397.95 C 749.58 396.31, 749.75 395.17, 749.60 394.66 C 749.45 394.15, 748.13 394.13, 746.71 395.42 C 745.29 396.71, 744.30 398.26, 742.48 401.11 C 740.67 403.95, 739.58 406.33, 737.61 409.66 C 735.65 413.00, 733.89 414.74, 732.64 417.79 C 731.39 420.83, 730.98 422.53, 731.37 424.90 C 731.77 427.27, 732.61 428.55, 734.62 429.64 C 736.63 430.72, 738.53 431.36, 741.43 430.33 C 744.34 429.29, 745.63 427.21, 749.14 424.45 C 752.66 421.70, 754.78 419.73, 759.01 416.57 C 763.24 413.40, 765.88 411.43, 770.28 408.62 C 774.68 405.80, 777.40 404.31, 780.99 402.48 C 784.57 400.66, 786.42 400.38, 788.20 399.49 C 789.97 398.59, 790.00 397.94, 789.86 398.01 C 789.72 398.08, 788.69 398.39, 787.50 399.85 C 786.30 401.30, 785.15 402.63, 783.89 405.28 C 782.63 407.94, 781.86 409.93, 781.19 413.12 C 780.52 416.32, 780.11 418.25, 780.56 421.27 C 781.02 424.28, 781.59 426.00, 783.48 428.20 C 785.36 430.40, 786.89 431.71, 790.00 432.27 C 793.11 432.84, 795.03 432.23, 799.01 431.02 C 802.98 429.81, 805.15 428.53, 809.87 426.22 C 814.59 423.92, 817.32 422.38, 822.59 419.49 C 827.85 416.60, 830.83 414.80, 836.20 411.76 C 841.57 408.71, 844.50 406.97, 849.42 404.27 C 854.35 401.57, 856.85 400.16, 860.83 398.26 C 864.81 396.37, 866.99 396.23, 869.33 394.78 C 871.67 393.34, 872.16 392.39, 872.55 391.04 C 872.94 389.69, 872.42 388.89, 871.29 388.05 C 870.17 387.22, 868.92 386.69, 866.92 386.86 C 864.92 387.03, 863.63 387.29, 861.30 388.91 C 858.96 390.53, 857.95 392.38, 855.24 394.96 C 852.53 397.53, 850.66 398.98, 847.73 401.78 C 844.79 404.59, 843.24 406.21, 840.58 409.01 C 837.91 411.81, 836.12 413.00, 834.41 415.77 C 832.69 418.53, 832.13 420.22, 832.02 422.83 C 831.91 425.44, 832.42 426.93, 833.88 428.82 C 835.34 430.70, 836.70 431.67, 839.31 432.26 C 841.91 432.85, 843.80 432.89, 846.91 431.77 C 850.03 430.66, 851.54 429.03, 854.89 426.68 C 858.24 424.34, 860.09 422.85, 863.64 420.04 C 867.19 417.23, 869.18 415.51, 872.63 412.64 C 876.09 409.77, 878.55 408.29, 880.91 405.71 C 883.26 403.12, 884.19 401.55, 884.40 399.72 C 884.61 397.89, 883.60 396.89, 881.94 396.55 C 880.29 396.22, 878.36 396.46, 876.14 398.04 C 873.92 399.63, 872.37 401.44, 870.84 404.47 C 869.31 407.50, 868.62 409.84, 868.49 413.18 C 868.36 416.52, 868.74 418.48, 870.17 421.17 C 871.61 423.86, 872.79 425.41, 875.67 426.62 C 878.55 427.84, 880.58 427.84, 884.57 427.24 C 888.56 426.65, 890.79 425.54, 895.64 423.64 C 900.48 421.75, 903.29 420.39, 908.80 417.78 C 914.32 415.16, 917.50 413.49, 923.23 410.58 C 928.95 407.66, 932.11 405.91, 937.44 403.19 C 942.77 400.48, 945.52 399.01, 949.89 396.99 C 954.26 394.97, 956.55 394.62, 959.28 393.08 C 962.01 391.53, 962.86 390.72, 963.53 389.25 C 964.21 387.79, 963.78 386.82, 962.66 385.75 C 961.54 384.68, 960.19 383.92, 957.94 383.92 C 955.69 383.91, 954.06 384.26, 951.40 385.71 C 948.74 387.16, 947.45 388.94, 944.64 391.17 C 941.83 393.39, 940.14 394.56, 937.35 396.82 C 934.56 399.09, 932.78 400.10, 930.67 402.48 C 928.56 404.87, 927.57 406.27, 926.79 408.75 C 926.01 411.23, 925.94 412.75, 926.78 414.88 C 927.62 417.01, 928.70 418.29, 930.98 419.39 C 933.25 420.49, 935.07 421.01, 938.14 420.37 C 941.22 419.73, 942.82 418.19, 946.34 416.20 C 949.86 414.22, 951.89 412.87, 955.75 410.45 C 959.62 408.04, 961.83 406.54, 965.65 404.14 C 969.46 401.75, 971.97 400.49, 974.84 398.48 C 977.71 396.47, 979.09 395.45, 980.00 394.08 C 980.91 392.71, 980.31 391.60, 979.39 391.64 C 978.46 391.68, 977.04 391.91, 975.39 394.29 C 973.74 396.67, 973.26 399.15, 971.13 403.53 C 969.01 407.91, 967.61 410.76, 964.78 416.20 C 961.95 421.63, 960.28 424.76, 957.00 430.71 C 953.71 436.66, 951.90 439.90, 948.36 445.94 C 944.83 451.98, 942.95 455.21, 939.32 460.90 C 935.69 466.59, 933.80 469.55, 930.22 474.40 C 926.63 479.24, 924.76 481.56, 921.40 485.13 C 918.05 488.69, 916.19 490.14, 913.44 492.21 C 910.69 494.29, 909.28 494.66, 907.65 495.50 C 906.01 496.35, 905.73 496.60, 905.25 496.43 C 904.77 496.26, 905.08 495.98, 905.24 494.63 C 905.41 493.29, 905.46 492.40, 906.07 489.69 C 906.69 486.98, 906.69 484.92, 908.31 481.08 C 909.92 477.24, 911.08 474.90, 914.15 470.51 C 917.23 466.12, 919.28 463.71, 923.67 459.13 C 928.07 454.55, 930.71 452.15, 936.12 447.62 C 941.54 443.08, 944.64 440.81, 950.76 436.44 C 956.88 432.08, 960.28 429.95, 966.73 425.79 C 973.17 421.63, 976.62 419.58, 982.99 415.65 C 989.36 411.72, 992.69 409.79, 998.59 406.13 C 1004.48 402.46, 1007.45 400.63, 1012.46 397.32 C 1017.47 394.01, 1019.82 392.36, 1023.65 389.56 C 1027.49 386.76, 1029.52 385.85, 1031.64 383.32 C 1033.76 380.78, 1034.26 379.26, 1034.25 376.88 C 1034.23 374.51, 1033.50 373.00, 1031.57 371.45 C 1029.65 369.90, 1027.71 368.88, 1024.62 369.14 C 1021.52 369.39, 1019.59 370.68, 1016.09 372.73 C 1012.59 374.78, 1010.63 376.38, 1007.10 379.38 C 1003.56 382.37, 1001.52 384.21, 998.41 387.70 C 995.30 391.19, 993.61 393.13, 991.53 396.81 C 989.46 400.48, 988.32 402.47, 988.03 406.09 C 987.74 409.70, 988.25 411.95, 990.09 414.88 C 991.94 417.81, 993.69 419.26, 997.26 420.73 C 1000.83 422.20, 1003.20 422.25, 1007.93 422.23 C 1012.65 422.22, 1015.41 421.74, 1020.88 420.67 C 1026.36 419.60, 1029.47 418.67, 1035.30 416.87 C 1041.14 415.07, 1044.39 413.80, 1050.05 411.66 C 1055.72 409.52, 1058.73 408.15, 1063.64 406.16 C 1068.55 404.17, 1071.28 403.24, 1074.60 401.70 C 1077.91 400.16, 1079.24 399.47, 1080.21 398.48 C 1081.18 397.48, 1080.59 396.79, 1079.46 396.74 C 1078.33 396.70, 1076.65 396.81, 1074.56 398.25 C 1072.47 399.69, 1071.31 401.57, 1069.02 403.95 C 1066.72 406.33, 1064.62 407.58, 1063.09 410.14 C 1061.57 412.71, 1061.12 414.67, 1061.39 416.79 C 1061.66 418.92, 1062.60 420.24, 1064.45 420.77 C 1066.30 421.31, 1067.87 421.16, 1070.64 419.47 C 1073.41 417.79, 1074.66 415.48, 1078.30 412.35 C 1081.95 409.21, 1084.35 407.09, 1088.87 403.79 C 1093.39 400.48, 1096.08 398.66, 1100.90 395.84 C 1105.73 393.01, 1108.38 391.66, 1113.00 389.67 C 1117.61 387.68, 1119.97 386.90, 1123.99 385.88 C 1128.01 384.87, 1130.19 385.09, 1133.11 384.59 C 1136.02 384.10, 1136.92 383.95, 1138.57 383.42 C 1140.22 382.89, 1140.60 382.47, 1141.35 381.94 C 1142.11 381.40, 1142.14 381.28, 1142.36 380.73 C 1142.57 380.17, 1142.66 379.75, 1142.44 379.17 C 1142.22 378.60, 1142.17 378.34, 1141.24 377.85 C 1140.32 377.36, 1139.72 376.83, 1137.80 376.71 C 1135.88 376.58, 1134.77 376.53, 1131.65 377.23 C 1128.54 377.92, 1126.38 378.66, 1122.22 380.19 C 1118.06 381.73, 1115.63 382.67, 1110.85 384.90 C 1106.08 387.14, 1103.38 388.54, 1098.35 391.37 C 1093.31 394.20, 1090.58 396.03, 1085.69 399.03 C 1080.80 402.04, 1078.03 403.77, 1073.90 406.41 C 1069.77 409.04, 1067.32 410.00, 1065.04 412.20 C 1062.76 414.41, 1062.38 415.87, 1062.48 417.44 C 1062.58 419.00, 1063.68 419.92, 1065.53 420.03 C 1067.38 420.14, 1069.36 419.71, 1071.73 417.98 C 1074.11 416.24, 1075.22 414.06, 1077.41 411.37 C 1079.60 408.67, 1081.53 407.26, 1082.68 404.49 C 1083.82 401.72, 1083.82 399.69, 1083.15 397.53 C 1082.47 395.38, 1081.53 394.09, 1079.29 393.73 C 1077.04 393.36, 1075.48 394.18, 1071.92 395.71 C 1068.37 397.23, 1066.23 399.08, 1061.51 401.37 C 1056.79 403.66, 1053.85 405.01, 1048.33 407.15 C 1042.80 409.29, 1039.56 410.48, 1033.89 412.08 C 1028.21 413.67, 1025.10 414.40, 1019.95 415.11 C 1014.80 415.81, 1012.11 415.88, 1008.13 415.60 C 1004.15 415.33, 1002.47 414.64, 1000.07 413.72 C 997.67 412.80, 997.05 412.38, 996.15 411.01 C 995.24 409.63, 995.23 409.02, 995.53 406.86 C 995.83 404.69, 996.07 403.12, 997.66 400.20 C 999.24 397.28, 1000.65 395.27, 1003.43 392.27 C 1006.22 389.26, 1008.24 387.50, 1011.58 385.16 C 1014.93 382.82, 1017.12 381.90, 1020.15 380.57 C 1023.18 379.23, 1024.83 379.34, 1026.72 378.48 C 1028.61 377.61, 1029.03 376.77, 1029.60 376.25 C 1030.16 375.72, 1030.19 375.38, 1029.56 375.87 C 1028.93 376.36, 1028.28 376.75, 1026.43 378.68 C 1024.58 380.60, 1023.61 382.46, 1020.32 385.48 C 1017.03 388.50, 1014.75 390.29, 1009.99 393.77 C 1005.23 397.25, 1002.31 399.12, 996.52 402.88 C 990.74 406.64, 987.42 408.59, 981.07 412.56 C 974.72 416.54, 971.27 418.59, 964.78 422.76 C 958.29 426.93, 954.86 429.05, 948.62 433.40 C 942.38 437.75, 939.21 440.00, 933.58 444.51 C 927.95 449.01, 925.21 451.37, 920.47 455.92 C 915.72 460.46, 913.50 462.82, 909.86 467.22 C 906.21 471.63, 904.67 473.86, 902.22 477.96 C 899.77 482.07, 898.44 484.08, 897.59 487.74 C 896.74 491.40, 896.88 493.54, 897.96 496.28 C 899.05 499.02, 900.60 500.30, 903.03 501.42 C 905.46 502.54, 907.24 502.78, 910.11 501.88 C 912.97 500.99, 914.36 499.65, 917.37 496.95 C 920.37 494.26, 921.87 492.41, 925.15 488.41 C 928.42 484.40, 930.22 481.99, 933.74 476.92 C 937.26 471.86, 939.13 468.85, 942.75 463.07 C 946.37 457.28, 948.24 454.04, 951.85 448.00 C 955.46 441.97, 957.29 438.73, 960.79 432.89 C 964.28 427.05, 966.05 423.99, 969.32 418.80 C 972.59 413.61, 974.38 411.09, 977.13 406.95 C 979.87 402.81, 981.94 401.22, 983.03 398.11 C 984.13 394.99, 983.68 393.24, 982.59 391.37 C 981.51 389.49, 980.02 388.60, 977.61 388.71 C 975.19 388.82, 973.67 389.98, 970.53 391.92 C 967.39 393.86, 965.58 395.93, 961.91 398.40 C 958.25 400.87, 956.05 402.28, 952.21 404.28 C 948.38 406.28, 946.12 407.20, 942.74 408.41 C 939.35 409.62, 937.47 409.47, 935.30 410.32 C 933.12 411.16, 932.62 411.96, 931.88 412.65 C 931.13 413.35, 931.20 413.79, 931.56 413.79 C 931.91 413.80, 932.45 413.65, 933.65 412.69 C 934.85 411.73, 935.70 410.78, 937.54 408.98 C 939.39 407.18, 940.41 405.65, 942.87 403.70 C 945.33 401.74, 946.98 400.65, 949.85 399.19 C 952.71 397.72, 954.77 397.70, 957.21 396.37 C 959.65 395.04, 960.78 394.22, 962.03 392.55 C 963.29 390.87, 963.61 389.45, 963.49 388.02 C 963.36 386.59, 962.92 385.66, 961.41 385.40 C 959.90 385.13, 958.74 385.35, 955.94 386.71 C 953.13 388.07, 951.51 389.75, 947.37 392.21 C 943.23 394.66, 940.49 396.16, 935.24 398.99 C 929.99 401.83, 926.83 403.58, 921.13 406.39 C 915.42 409.20, 912.21 410.79, 906.71 413.05 C 901.21 415.31, 898.28 416.41, 893.64 417.70 C 889.00 418.98, 886.67 419.12, 883.52 419.49 C 880.38 419.86, 879.34 419.69, 877.92 419.54 C 876.50 419.39, 876.34 419.52, 876.44 418.75 C 876.55 417.98, 877.30 417.37, 878.43 415.69 C 879.57 414.02, 880.80 412.74, 882.10 410.38 C 883.40 408.01, 884.49 406.31, 884.94 403.86 C 885.39 401.40, 885.21 399.64, 884.34 398.09 C 883.47 396.53, 882.44 395.74, 880.58 396.09 C 878.72 396.44, 877.54 397.55, 875.03 399.82 C 872.52 402.08, 871.16 404.49, 868.03 407.41 C 864.91 410.32, 862.90 411.95, 859.42 414.38 C 855.95 416.80, 853.90 417.99, 850.66 419.54 C 847.42 421.10, 845.52 421.18, 843.21 422.15 C 840.91 423.12, 840.18 423.72, 839.12 424.40 C 838.06 425.08, 837.96 425.53, 837.89 425.54 C 837.83 425.56, 838.02 425.45, 838.79 424.48 C 839.55 423.51, 840.21 422.73, 841.73 420.70 C 843.25 418.66, 844.12 416.92, 846.39 414.31 C 848.65 411.71, 850.17 410.10, 853.04 407.68 C 855.91 405.26, 857.73 403.97, 860.74 402.22 C 863.74 400.47, 865.80 400.40, 868.05 398.93 C 870.30 397.46, 870.99 396.59, 871.97 394.88 C 872.96 393.17, 873.19 391.88, 872.97 390.39 C 872.75 388.90, 872.35 387.92, 870.89 387.42 C 869.43 386.93, 868.26 386.74, 865.69 387.90 C 863.11 389.06, 861.76 390.81, 858.02 393.22 C 854.27 395.63, 851.80 397.09, 846.97 399.96 C 842.13 402.83, 839.20 404.58, 833.85 407.57 C 828.49 410.55, 825.48 412.28, 820.19 414.88 C 814.90 417.47, 812.05 418.79, 807.41 420.53 C 802.77 422.26, 800.34 422.79, 797.00 423.54 C 793.66 424.29, 792.41 424.15, 790.72 424.28 C 789.02 424.41, 788.82 424.74, 788.52 424.20 C 788.23 423.65, 788.64 423.15, 789.25 421.55 C 789.86 419.96, 790.54 418.70, 791.57 416.21 C 792.59 413.72, 793.62 412.05, 794.39 409.10 C 795.17 406.16, 795.76 404.25, 795.44 401.49 C 795.12 398.74, 794.56 397.03, 792.79 395.32 C 791.01 393.61, 789.52 392.66, 786.56 392.96 C 783.59 393.25, 781.85 394.65, 777.96 396.80 C 774.07 398.95, 771.62 400.78, 767.11 403.70 C 762.61 406.62, 759.90 408.54, 755.43 411.40 C 750.96 414.25, 748.45 415.85, 744.75 417.98 C 741.06 420.12, 738.91 420.49, 736.97 422.07 C 735.03 423.65, 735.05 425.03, 735.07 425.88 C 735.08 426.73, 735.89 427.05, 737.06 426.32 C 738.23 425.59, 739.24 424.65, 740.92 422.25 C 742.61 419.86, 743.50 417.65, 745.48 414.34 C 747.46 411.03, 749.25 409.04, 750.84 405.71 C 752.42 402.39, 753.44 400.47, 753.41 397.73 C 753.37 394.99, 752.56 393.24, 750.67 392.03 C 748.78 390.81, 746.99 390.45, 743.96 391.66 C 740.94 392.87, 739.39 395.14, 735.56 398.08 C 731.74 401.03, 729.36 403.03, 724.84 406.38 C 720.33 409.72, 717.64 411.76, 712.98 414.80 C 708.33 417.84, 705.77 419.45, 701.55 421.57 C 697.33 423.69, 695.05 424.37, 691.89 425.41 C 688.74 426.45, 687.47 426.46, 685.77 426.78 C 684.07 427.10, 683.79 427.52, 683.40 427.02 C 683.02 426.52, 683.36 426.06, 683.84 424.28 C 684.33 422.49, 684.57 420.97, 685.83 418.10 C 687.10 415.23, 688.40 413.09, 690.18 409.93 C 691.95 406.77, 693.78 405.06, 694.70 402.30 C 695.62 399.53, 695.48 397.69, 694.78 396.09 C 694.09 394.49, 692.95 393.70, 691.22 394.31 C 689.49 394.91, 688.52 396.29, 686.14 399.11 C 683.76 401.93, 682.45 404.65, 679.32 408.40 C 676.19 412.14, 674.13 414.30, 670.47 417.85 C 666.81 421.40, 664.69 423.32, 661.01 426.14 C 657.34 428.96, 655.25 430.25, 652.11 431.97 C 648.98 433.68, 647.32 433.72, 645.36 434.72 C 643.40 435.72, 643.03 436.49, 642.29 436.97 C 641.56 437.46, 641.51 437.69, 641.68 437.15 C 641.86 436.60, 642.33 436.13, 643.15 434.23 C 643.97 432.33, 644.14 430.68, 645.77 427.64 C 647.39 424.60, 648.63 422.53, 651.28 419.03 C 653.92 415.54, 655.78 413.49, 658.99 410.17 C 662.19 406.85, 663.99 405.06, 667.28 402.45 C 670.57 399.83, 672.52 398.80, 675.42 397.09 C 678.32 395.38, 679.96 395.26, 681.78 393.90 C 683.59 392.54, 683.94 391.77, 684.50 390.31 C 685.05 388.84, 685.00 387.66, 684.54 386.57 C 684.08 385.47, 683.60 384.85, 682.18 384.82 C 680.76 384.79, 679.72 384.92, 677.44 386.42 C 675.16 387.91, 674.07 389.60, 670.78 392.29 C 667.50 394.98, 665.37 396.59, 661.02 399.88 C 656.67 403.18, 654.05 405.13, 649.04 408.77 C 644.03 412.41, 641.18 414.55, 635.96 418.08 C 630.75 421.61, 627.92 423.54, 622.97 426.42 C 618.03 429.30, 615.45 430.66, 611.24 432.46 C 607.03 434.27, 604.92 434.70, 601.92 435.45 C 598.93 436.19, 597.91 436.31, 596.26 436.20 C 594.62 436.09, 594.39 436.24, 593.71 434.89 C 593.03 433.53, 592.70 432.56, 592.86 429.42 C 593.02 426.27, 593.18 423.96, 594.50 419.16 C 595.81 414.35, 596.98 411.29, 599.45 405.40 C 601.92 399.52, 603.64 396.05, 606.83 389.72 C 610.01 383.38, 612.03 379.84, 615.37 373.72 C 618.72 367.60, 620.66 364.35, 623.56 359.13 C 626.46 353.90, 628.15 351.59, 629.89 347.60 C 631.63 343.62, 632.58 341.89, 632.27 339.22 C 631.97 336.55, 630.47 335.17, 628.37 334.26 C 626.27 333.36, 624.48 333.37, 621.76 334.70 C 619.04 336.02, 617.98 337.93, 614.75 340.90 C 611.52 343.87, 609.61 345.73, 605.62 349.55 C 601.63 353.37, 599.26 355.74, 594.82 360.02 C 590.37 364.30, 587.84 366.83, 583.40 370.94 C 578.95 375.06, 576.57 377.35, 572.58 380.61 C 568.59 383.88, 566.41 385.28, 563.45 387.28 C 560.48 389.27, 559.25 389.66, 557.77 390.58 C 556.30 391.50, 556.43 392.05, 556.07 391.86 C 555.70 391.67, 555.99 391.24, 555.94 389.63 C 555.89 388.02, 555.82 386.72, 555.81 383.80 C 555.80 380.87, 555.69 378.83, 555.89 375.00 C 556.08 371.18, 556.42 368.87, 556.80 364.70 C 557.17 360.52, 557.53 358.18, 557.76 354.14 C 557.99 350.10, 558.49 347.95, 557.94 344.48 C 557.40 341.02, 556.80 339.15, 555.02 336.81 C 553.23 334.46, 551.70 333.45, 549.01 332.75 C 546.32 332.05, 544.54 331.93, 541.56 333.31 C 538.57 334.69, 537.33 336.43, 534.10 339.66 C 530.87 342.88, 529.11 344.92, 525.40 349.44 C 521.70 353.95, 519.64 356.65, 515.59 362.24 C 511.54 367.82, 509.26 371.05, 505.14 377.35 C 501.03 383.64, 498.84 387.23, 495.01 393.71 C 491.18 400.20, 489.33 403.79, 485.99 409.76 C 482.65 415.73, 480.97 418.84, 478.31 423.57 C 475.65 428.30, 473.85 430.26, 472.71 433.42 C 471.57 436.58, 471.93 437.99, 472.63 439.39 C 473.33 440.78, 474.76 441.21, 476.20 440.39 C 477.64 439.57, 478.36 438.34, 479.83 435.29 C 481.30 432.25, 481.68 429.71, 483.54 425.16 C 485.40 420.60, 486.79 417.75, 489.15 412.51 C 491.51 407.28, 492.94 404.23, 495.36 399.00 C 497.77 393.77, 499.08 390.88, 501.21 386.37 C 503.34 381.87, 504.72 379.78, 505.99 376.47 C 507.26 373.16, 507.50 371.89, 507.56 369.84 C 507.63 367.80, 507.21 367.15, 506.31 366.24 C 505.40 365.33, 504.28 365.04, 503.04 365.29" style="stroke: black; fill: black;"/></svg>