<?xml version="1.0" standalone="no"?><!DOCTYPE svg PUBLIC "-//W3C//DTD SVG 1.1//EN" "http://www.w3.org/Graphics/SVG/1.1/DTD/svg11.dtd"><svg t="1701052049374" class="icon" viewBox="0 0 1024 1024" version="1.1" xmlns="http://www.w3.org/2000/svg" p-id="4076" xmlns:xlink="http://www.w3.org/1999/xlink" width="200" height="200"><path d="M574.56 308.71a140.72 140.72 0 1 0-281.44 0v234.56A187.66 187.66 0 0 0 393.5 850.71a217.73 217.73 0 0 0 40 5.32 187.66 187.66 0 0 0 141-312.76zM512 765.64A125.39 125.39 0 0 1 345.66 578a31.21 31.21 0 0 0 9.34-22.22V308.71a78.18 78.18 0 1 1 156.35 0V557a31.28 31.28 0 0 0 9.39 22.2A125.11 125.11 0 0 1 512 766.9z m-46.89-151.06V308.71a31.27 31.27 0 1 0-62.54 0v305.87a62.54 62.54 0 1 0 62.54 0z m281.44-399.7h-93.81a31.28 31.28 0 0 0 0 62.55h93.81a31.28 31.28 0 0 0 0-62.55z" p-id="4077" fill="#ffffff"></path></svg>