<?xml version="1.0" standalone="no"?><!DOCTYPE svg PUBLIC "-//W3C//DTD SVG 1.1//EN" "http://www.w3.org/Graphics/SVG/1.1/DTD/svg11.dtd"><svg t="1701780744499" class="icon" viewBox="0 0 1117 1024" version="1.1" xmlns="http://www.w3.org/2000/svg" p-id="4275" xmlns:xlink="http://www.w3.org/1999/xlink" width="218.1640625" height="200"><path d="M1031.773091 907.217455H85.317818A85.317818 85.317818 0 0 1 0 821.992727V410.624C0 363.52 38.167273 325.306182 85.317818 325.306182h946.455273C1078.923636 325.352727 1117.090909 363.52 1117.090909 410.624v411.322182c0 47.057455-38.167273 85.271273-85.317818 85.271273zM85.317818 390.749091a19.828364 19.828364 0 0 0-19.874909 19.874909v411.322182c0 10.984727 8.843636 19.828364 19.874909 19.828363h946.455273c10.984727 0 19.874909-8.843636 19.874909-19.828363V410.624a19.828364 19.828364 0 0 0-19.874909-19.874909H85.317818z" fill="#144e2e" p-id="4276"></path><path d="M696.645818 522.798545h65.442909v186.973091h-65.442909v-186.973091z m182.318546 0h65.442909v186.973091h-65.442909v-186.973091zM226.676364 880.453818h65.442909v116.829091H226.676364v-116.829091z m598.388363 0h65.442909v116.829091h-65.442909v-116.829091zM418.536727 208.570182H353.140364a18.804364 18.804364 0 1 0-37.655273 0H250.042182a84.247273 84.247273 0 0 1 168.494545 0z" fill="#144e2e" p-id="4277"></path><path d="M542.301091 208.570182h-65.442909a142.661818 142.661818 0 0 0-142.568727-142.568727A142.661818 142.661818 0 0 0 191.767273 208.570182H126.324364A208.290909 208.290909 0 0 1 334.289455 0.605091a208.244364 208.244364 0 0 1 208.011636 207.965091z m-240.733091 32.488727h65.442909v116.829091H301.614545V241.105455z" fill="#144e2e" p-id="4278"></path></svg>