<?xml version="1.0" standalone="no"?><!DOCTYPE svg PUBLIC "-//W3C//DTD SVG 1.1//EN" "http://www.w3.org/Graphics/SVG/1.1/DTD/svg11.dtd"><svg t="1700272742963" class="icon" viewBox="0 0 1024 1024" version="1.1" xmlns="http://www.w3.org/2000/svg" p-id="1522" xmlns:xlink="http://www.w3.org/1999/xlink" width="200" height="200"><path d="M512 1024A512 512 0 1 1 512 0a512 512 0 0 1 0 1024z m0-64A448 448 0 1 0 512 64a448 448 0 0 0 0 896zM300.8 576a64 64 0 1 1 0-128 64 64 0 0 1 0 128z m422.4 0a64 64 0 1 1 0-128 64 64 0 0 1 0 128zM512 576a64 64 0 1 1 0-128 64 64 0 0 1 0 128z" fill="#6D7684" p-id="1523"></path></svg>