<?xml version="1.0" standalone="no"?><!DOCTYPE svg PUBLIC "-//W3C//DTD SVG 1.1//EN" "http://www.w3.org/Graphics/SVG/1.1/DTD/svg11.dtd"><svg t="1702281973078" class="icon" viewBox="0 0 1024 1024" version="1.1" xmlns="http://www.w3.org/2000/svg" p-id="4379" xmlns:xlink="http://www.w3.org/1999/xlink" width="200" height="200"><path d="M294.4 580.266667c-6.4-14.933333-23.466667-23.466667-38.4-19.2-19.2 6.4-27.733333 25.6-21.333333 42.666666 44.8 110.933333 151.466667 187.733333 277.333333 187.733334s232.533333-76.8 277.333333-187.733334c6.4-17.066667-4.266667-38.4-21.333333-42.666666-14.933333-4.266667-32 4.266667-38.4 19.2-36.266667 87.466667-119.466667 147.2-217.6 147.2-96 0-181.333333-61.866667-217.6-147.2z" p-id="4380" fill="#144e2e"></path><path d="M891.733333 597.333333c-14.933333-4.266667-32 4.266667-38.4 19.2-49.066667 138.666667-183.466667 238.933333-339.2 238.933334S224 755.2 170.666667 616.533333c-4.266667-14.933333-21.333333-23.466667-38.4-19.2-17.066667 6.4-27.733333 25.6-21.333334 42.666667C170.666667 802.133333 330.666667 919.466667 512 919.466667c183.466667 0 341.333333-117.333333 398.933333-279.466667 6.4-19.2-4.266667-38.4-19.2-42.666667z" p-id="4381" fill="#144e2e"></path><path d="M512 663.466667c66.133333 0 123.733333-38.4 151.466667-93.866667 10.666667-17.066667 0-38.4-19.2-44.8-12.8-4.266667-29.866667 2.133333-36.266667 14.933333-17.066667 36.266667-53.333333 59.733333-96 59.733334s-76.8-23.466667-96-59.733334c-6.4-12.8-21.333333-19.2-36.266667-14.933333-19.2 6.4-27.733333 27.733333-19.2 44.8 29.866667 55.466667 87.466667 93.866667 151.466667 93.866667zM832 192h-42.666667V149.333333c0-23.466667-19.2-42.666667-42.666666-42.666666H277.333333c-23.466667 0-42.666667 19.2-42.666666 42.666666v42.666667H192c-46.933333 0-85.333333 38.4-85.333333 85.333333v85.333334c0 46.933333 38.4 85.333333 85.333333 85.333333h640c46.933333 0 85.333333-38.4 85.333333-85.333333v-85.333334c0-46.933333-38.4-85.333333-85.333333-85.333333z m-554.666667 170.666667c-23.466667 0-42.666667-19.2-42.666666-42.666667s19.2-42.666667 42.666666-42.666667 42.666667 19.2 42.666667 42.666667-19.2 42.666667-42.666667 42.666667z m149.333334 0c-23.466667 0-42.666667-19.2-42.666667-42.666667s19.2-42.666667 42.666667-42.666667 42.666667 19.2 42.666666 42.666667-19.2 42.666667-42.666666 42.666667z m149.333333 0c-23.466667 0-42.666667-19.2-42.666667-42.666667s19.2-42.666667 42.666667-42.666667 42.666667 19.2 42.666667 42.666667-19.2 42.666667-42.666667 42.666667z m149.333333 0c-23.466667 0-42.666667-19.2-42.666666-42.666667s19.2-42.666667 42.666666-42.666667 42.666667 19.2 42.666667 42.666667-19.2 42.666667-42.666667 42.666667z" p-id="4382" fill="#144e2e"></path></svg>